<svg xmlns="http://www.w3.org/2000/svg" width="16" height="16"><path d="M5.74 1 4.539 2.073h-.006l-.001-.001c-.031-.012-.139-.094-.255-.127-.343-.099-.78-.082-1.077.05-.193.086-.268.147-.73.59-.496.48-.594.593-.594.695v.003c.01.04.183.287.268.482l.161.364-.207.556c-.113.304-.212.568-.219.59-.017.053 1.593 6.247 1.677 6.442.153.355.392.675.702.935.28.235 3.128 2.139 3.41 2.28A.9.9 0 0 0 8 15a.9.9 0 0 0 .333-.068c.282-.141 3.13-2.045 3.41-2.28.31-.26.549-.58.702-.935.084-.195 1.692-6.39 1.675-6.443l-.217-.59-.205-.555.159-.364c.085-.195.257-.444.268-.484V3.28c0-.102-.098-.216-.595-.694-.46-.444-.536-.505-.73-.591-.296-.132-.732-.149-1.076-.05-.12.035-.231.122-.258.128h-.004L10.26 1H8Zm-.558 2.618c.511.067.878.356 1.372.438.042 0 .21-.117.376-.175.706-.243.935-.263 1.072-.263.136 0 .367.018 1.073.263.165.058.333.175.373.175.501-.089.9-.35 1.375-.438l.005.002c.136.073 1.18 1.648 1.436 2.158.11.219.145.437.096.602-.044.148-.234.296-1.036 1.128-.367.382-.677.715-.685.742-.038.11-.008.274.106.57.15.389.167.55.092.79-.08.256-.2.444-.398.632-.202.192-.326.388-.441.368-.138-.025-1.003-.643-1.145-.776-.34-.317-.672-.684-.684-.756a.3.3 0 0 1 .03-.164c.023-.048.27-.305.548-.572.484-.465.572-.4.572-.533a5 5 0 0 0-.191-.585c-.151-.414-.192-.38-.191-.497 0-.186.061-.32.19-.415.054-.04.446-.222.87-.404.425-.182.8-.342.837-.359q.035-.016.042-.034l.002-.002v-.01l-.002-.002V5.5h-.002v-.002l-.001-.002c-.013-.014-.247-.05-.52-.077-.584-.059-.572-.06-1.215.197-.399.16-.465.194-.499.267a.4.4 0 0 0-.037.136c0 .03.083.455.184.945.125.603.164.71.16.74v.002l-.001.002v.003l-.002.002c-.003.005-.01.008-.018.017-.053.06-.574.237-.83.26-.223.019-.94-.173-1.013-.257q-.01-.011-.017-.015l-.002-.002-.001-.001-.002-.002V7.71l-.002-.002c-.005-.027.034-.128.161-.745.101-.49.184-.915.185-.945a.4.4 0 0 0-.038-.136c-.034-.073-.104-.109-.552-.288L6.3 5.39l-.279.007c-.352.01-.831.068-.882.104l-.002.002v.002h-.001v.002c-.003.016.37.19.832.386.461.197.877.39.925.427q.174.138.176.405c0 .119-.04.087-.195.515-.262.72-.292.45.396 1.114.292.28.545.546.56.59.048.128-.015.23-.35.568-.398.403-.475.461-.996.74v.002c-.235.127-.462.356-.507.362h-.002c-.114-.003-.189-.177-.381-.35a1.43 1.43 0 0 1-.426-.67c-.074-.246-.06-.36.094-.767.112-.297.143-.467.104-.58-.008-.025-.298-.338-.644-.697-1.029-1.066-1.13-1.116-1.09-1.42.028-.217.125-.29.47-.86.293-.484 1-1.594 1.08-1.654m2.823 6.339c.12 0 .238.05.456.15.416.19 1.284.68 1.32.742.044.078 0 .132-.269.352-.478.391-1.015.796-1.015.796-.513.503-.474.501-.976.014l-1.12-.868c-.187-.145-.225-.221-.151-.303.072-.078.926-.56 1.306-.736.211-.1.33-.148.45-.147" style="fill:#606060;fill-opacity:1;stroke-width:.875"/></svg>
