<svg xmlns="http://www.w3.org/2000/svg" width="16" height="16"><path d="M8.5 1c-.277 0-.5.223-.5.5v1c0 .277.223.5.5.5h1c.277 0 .5-.223.5-.5v-1c0-.277-.223-.5-.5-.5zm-3 3c-.277 0-.5.223-.5.5v1c0 .277.223.5.5.5h1c.277 0 .5-.223.5-.5v-1c0-.277-.223-.5-.5-.5zm3 0c-.277 0-.5.223-.5.5v1c0 .277.223.5.5.5h1c.277 0 .5-.223.5-.5v-1c0-.277-.223-.5-.5-.5zm-6 3c-.277 0-.5.223-.5.5v1c0 .277.223.5.5.5h1c.277 0 .5-.223.5-.5v-1c0-.277-.223-.5-.5-.5zm3 0c-.277 0-.5.223-.5.5v1c0 .277.223.5.5.5h1c.277 0 .5-.223.5-.5v-1c0-.277-.223-.5-.5-.5zm3 0c-.277 0-.5.223-.5.5v1c0 .277.223.5.5.5h1c.277 0 .5-.223.5-.5v-1c0-.277-.223-.5-.5-.5zm3.44 0c-.395.467-.545 1.013-.555 1.603-.04.397.153.734.281 1.09l-.89.307H1.5c-.486 0-.5 1-.5 1 0 1.496 1.305 4 4.418 4h1.045c2.497.02 5.537-2 6.379-4.502C14 10.493 14.685 9.969 15 9.062c-.569-.47-1.18-.486-1.855-.384-.12-.802-.58-1.353-1.206-1.678" class="ColorScheme-Text" style="color:#606060;fill:#606060;fill-opacity:1"/></svg>
