<svg xmlns="http://www.w3.org/2000/svg" width="16" height="16"><path d="M8 1a7 7 0 0 0-5.082 2.197l2.234 3.87A3 3 0 0 1 8 5h6.316A7 7 0 0 0 8 1M2.24 4.023A7 7 0 0 0 1 8a7 7 0 0 0 5.383 6.803l2.234-3.87A3 3 0 0 1 8 11a3 3 0 0 1-2.594-1.502l-.004.002zM8 6a2 2 0 0 0-2 2 2 2 0 0 0 2 2 2 2 0 0 0 2-2 2 2 0 0 0-2-2m2.23 0A3 3 0 0 1 11 8a3 3 0 0 1-.402 1.498l.002.002-3.16 5.473A7 7 0 0 0 8 15a7 7 0 0 0 7-7 7 7 0 0 0-.299-2Z" class="ColorScheme-Text" style="color:#606060;opacity:1;fill:#606060;fill-opacity:1"/></svg>
