<svg xmlns="http://www.w3.org/2000/svg" width="16" height="16"><path d="M8 1a7 7 0 0 0-7 7 7 7 0 0 0 7 7 7 7 0 0 0 7-7 7 7 0 0 0-7-7m.396 2c.836.002 2.253.426 2.595 1.117.051.102-.121.621-.514 1.742-.37 1.058-.541 1.751-1.182 2.654C8.54 9.577 7.9 8.989 7.48 10.7c-.214.875.03 1.072.3 1.355.618.305 1.01.625.944.808-.09.249-.995.147-2.02-.226-1.026-.374-1.785-1.021-1.696-1.27.066-.182.569-.177 1.234-.015.276-.035.574-.035.865-.78.402-1.029.204-1.338-.05-1.854-.2-.403-.402-1.156-.11-2.448.403-1.794.727-2.968.867-3.126.09-.1.304-.146.583-.145m-.959 2.28c-.247.63-.925 3.266.247 3.782 1.414.633 2.476-2.91 2.652-3.495-.366-.48-.968.466-1.79.433-.334-.013-.704-.272-1.108-.72" style="fill:#606060;fill-opacity:1;stroke-width:.25"/></svg>
