<svg xmlns="http://www.w3.org/2000/svg" xml:space="preserve" width="16" height="16"><path d="M12.573 1a.72.72 0 0 0-.568.296l-1.294 1.767A6.25 6.25 0 0 0 8 2.448c-.97 0-1.889.221-2.709.614L3.998 1.296a.72.72 0 0 0-.474-.287A1 1 0 0 0 3.383 1a.72.72 0 0 0-.397.139.724.724 0 0 0-.157 1.012l1.234 1.685a6.28 6.28 0 0 0-2.17 3.436 34 34 0 0 0 2.894.487v.001a33 33 0 0 0 2.341.22l.002-.002c.32.017.621.029.87.029.246 0 .548-.014.874-.034l.001.002c.671-.042 1.487-.126 2.362-.247l.369-.053c.812-.12 1.663-.27 2.49-.447a6.28 6.28 0 0 0-2.158-3.39l1.236-1.687a.724.724 0 0 0-.157-1.012.72.72 0 0 0-.444-.14m1.582 6.458-.007.002v-.001q-.451.097-.91.184l-1.541 4.788c-.225.784-.673.751-.995.315L8.027 9.929 5.26 12.83c-.34.28-.656.372-.902-.128L2.71 7.677q-.436-.081-.862-.173l-.004.02c-.06.325-.105.761-.115 1.106l-.001-.03-.003.124a6.276 6.276 0 1 0 12.55-.14l-.002.033a8 8 0 0 0-.065-.819l-.004-.032v-.007l-.002-.01a6 6 0 0 0-.046-.291m-2.979.52a34 34 0 0 1-2.121.228l1.57 2.015zm-6.329.032.528 2.171 1.57-1.97a34 34 0 0 1-2.098-.201" style="fill:#b0b0b0;fill-opacity:1;stroke-width:.241377"/></svg>
