<?xml version="1.0" encoding="UTF-8"?>
<svg xmlns="http://www.w3.org/2000/svg" viewBox="0 0 24 24" width="512" height="512" version="1.1">
 <defs>
  <linearGradient id="a" x1=".05" x2="1" y2="1" gradientTransform="scale(22)" gradientUnits="userSpaceOnUse">
   <stop stop-color="#8f8f8f" offset=".2"/>
   <stop stop-color="#fff" offset=".205"/>
   <stop stop-color="#dadada" offset="1"/>
  </linearGradient>
 </defs>
 <rect x="1" y="1" width="22" height="22" rx="6.6" fill="url(#a)" opacity=".9" stroke="gray" stroke-opacity=".2" vector-effect="non-scaling-stroke" style="-inkscape-stroke:hairline"/>
 <path d="m14.464 10.275a2.8828 2.8828 0 0 0-0.42062 0.04259l-3.0184 0.46124c-0.72857 0.15462-0.72594 0.2031-0.72857 0.81891v4.995q-0.04455-0.03276-0.09172-0.06355c-0.23127-0.15594-0.47829-0.26601-0.80981-0.26601-0.41538 0-0.66304 0.15921-0.81237 0.36821-0.15003 0.20965-0.19983 0.47304-0.19983 0.67746 0 0.24634 0.083868 0.50842 0.266 0.7089 0.18279 0.19983 0.46256 0.34004 0.8648 0.34004 0.45535 0 0.77505-0.1271 0.95654-0.37542 0.14218-0.19524 0.22145-0.456 0.24897-0.77768v-2e-3l0.0092-0.1199c0.0039-0.06355 0.0026-0.18345 0.0026-0.18345v-3.8236c0-0.54641 0-0.57917 0.7292-0.70366l2.1464-0.33676c0.73049-0.09499 0.73049-0.02883 0.73049 0.3813v3.5104l-0.08976-0.06223c-0.23062-0.15592-0.47828-0.26534-0.80917-0.26534-0.41538 0-0.66304 0.15855-0.81237 0.36821-0.15069 0.20965-0.19983 0.47369-0.19983 0.67745 0 0.24569 0.08387 0.50842 0.266 0.70824 0.18213 0.20048 0.46256 0.34069 0.86547 0.34069 0.45469 0 0.77505-0.1271 0.95595-0.37541 0.14217-0.19459 0.2208-0.456 0.24897-0.77839q0.0053-0.05897 0.0092-0.1212c0.0039-0.06355 0.0033-0.18214 0.0033-0.18214v-5.3214c0-0.47894-0.0039-0.63749-0.31056-0.64075" opacity=".5" stroke-width=".76708"/>
 <g transform="matrix(.88121 0 0 .88121 1.4138 2.7084)" alignment-baseline="middle" font-family="Lato" font-weight="bold" opacity=".5" text-anchor="middle">
  <path d="M 2.6238754,7 V 4.1785 h 0.41525 q 0.132,0 0.17325,0.12375 l 0.044,0.209 q 0.07425,-0.0825 0.154,-0.15125 0.0825,-0.06875 0.17325,-0.11825 0.0935,-0.0495 0.198,-0.077 0.10725,-0.03025 0.23375,-0.03025 0.26675,0 0.43725,0.14575 0.17325,0.143 0.2585,0.38225 0.066,-0.14025 0.165,-0.23925 0.099,-0.10175 0.21725,-0.165 0.11825,-0.06325 0.25025,-0.0935 0.13475,-0.03025 0.2695,-0.03025 0.23375,0 0.41525,0.0715 0.1815,0.0715 0.30525,0.209 0.12375,0.1375 0.187,0.3355 0.066,0.198 0.066,0.45375 V 7 h -0.67925 V 5.20425 q 0,-0.2695 -0.11825,-0.40425 -0.11825,-0.1375 -0.3465,-0.1375 -0.1045,0 -0.19525,0.03575 -0.088,0.03575 -0.15675,0.1045 -0.066,0.066 -0.1045,0.16775 -0.0385,0.10175 -0.0385,0.23375 V 7 h -0.682 V 5.20425 q 0,-0.28325 -0.1155,-0.4125 -0.11275,-0.12925 -0.33275,-0.12925 -0.1485,0 -0.27775,0.07425 -0.1265,0.0715 -0.2365,0.198 V 7 Z M 8.4786233,4.1345 q 0.3135,0 0.56925,0.10175 0.2585,0.10175 0.44,0.28875 0.18425,0.187 0.28325,0.4565 0.099,0.2695 0.099,0.60225 0,0.3355 -0.099,0.605 -0.099,0.2695 -0.28325,0.45925 -0.1815,0.18975 -0.44,0.2915 -0.25575,0.10175 -0.56925,0.10175 -0.31625,0 -0.57475,-0.10175 -0.2585,-0.10175 -0.44275,-0.2915 -0.1815,-0.18975 -0.28325,-0.45925 -0.099,-0.2695 -0.099,-0.605 0,-0.33275 0.099,-0.60225 0.10175,-0.2695 0.28325,-0.4565 0.18425,-0.187 0.44275,-0.28875 0.2585,-0.10175 0.57475,-0.10175 z m 0,2.38425 q 0.352,0 0.51975,-0.2365 0.1705,-0.2365 0.1705,-0.693 0,-0.4565 -0.1705,-0.69575 -0.16775,-0.23925 -0.51975,-0.23925 -0.3575,0 -0.53075,0.242 -0.1705,0.23925 -0.1705,0.693 0,0.45375 0.1705,0.693 0.17325,0.2365 0.53075,0.2365 z M 11.025118,4.525 q 0.08525,-0.08525 0.17875,-0.15675 0.09625,-0.07425 0.20075,-0.12375 0.10725,-0.05225 0.22825,-0.07975 0.121,-0.03025 0.264,-0.03025 0.231,0 0.40975,0.07975 0.17875,0.077 0.297,0.22 0.121,0.14025 0.1815,0.33825 0.06325,0.19525 0.06325,0.43175 V 7 h -0.67925 V 5.20425 q 0,-0.2585 -0.11825,-0.39875 -0.11825,-0.143 -0.36025,-0.143 -0.176,0 -0.33,0.07975 -0.154,0.07975 -0.2915,0.21725 V 7 h -0.67925 V 4.1785 h 0.41525 q 0.132,0 0.17325,0.12375 z m 3.145996,-1.6115 v 2.34025 h 0.1265 q 0.06875,0 0.10725,-0.0165 0.04125,-0.01925 0.0825,-0.07425 l 0.70125,-0.86625 q 0.044,-0.05775 0.09625,-0.088 0.055,-0.03025 0.14025,-0.03025 h 0.6215 l -0.87725,1.04775 q -0.0935,0.12375 -0.2035,0.18975 0.05775,0.04125 0.10175,0.09625 0.04675,0.055 0.088,0.11825 L 16.096114,7 h -0.61325 q -0.07975,0 -0.1375,-0.02475 -0.05775,-0.0275 -0.09625,-0.09625 l -0.7205,-1.06975 Q 14.490114,5.746 14.448864,5.72675 14.407614,5.7075 14.325114,5.7075 h -0.154 V 7 h -0.67925 V 2.9135 Z m 3.935256,2.35125 q 0,-0.132 -0.0385,-0.2475 Q 18.03212,4.899 17.95787,4.811 17.88362,4.723 17.76812,4.6735 q -0.11275,-0.05225 -0.264,-0.05225 -0.29425,0 -0.46475,0.16775 -0.16775,0.16775 -0.2145,0.47575 z M 16.81112,5.6745 q 0.0165,0.21725 0.077,0.37675 0.0605,0.15675 0.1595,0.26125 0.099,0.10175 0.23375,0.154 0.1375,0.0495 0.3025,0.0495 0.165,0 0.28325,-0.0385 0.121,-0.0385 0.209,-0.08525 0.09075,-0.04675 0.15675,-0.08525 0.06875,-0.0385 0.132,-0.0385 0.08525,0 0.1265,0.06325 l 0.19525,0.2475 q -0.11275,0.132 -0.253,0.22275 -0.14025,0.088 -0.29425,0.143 -0.15125,0.05225 -0.31075,0.07425 -0.15675,0.022 -0.30525,0.022 -0.29425,0 -0.54725,-0.09625 -0.253,-0.099 -0.44,-0.28875 -0.187,-0.1925 -0.29425,-0.473 Q 16.13462,5.9 16.13462,5.52875 q 0,-0.28875 0.0935,-0.54175 0.0935,-0.25575 0.26675,-0.44275 0.176,-0.18975 0.42625,-0.29975 0.253,-0.11 0.56925,-0.11 0.26675,0 0.49225,0.08525 0.2255,0.08525 0.38775,0.25025 0.16225,0.16225 0.253,0.4015 0.0935,0.2365 0.0935,0.54175 0,0.154 -0.033,0.209 -0.033,0.05225 -0.1265,0.05225 z m 4.897755,-1.496 -1.53725,3.597 q -0.03025,0.0715 -0.07975,0.10725 -0.04675,0.0385 -0.14575,0.0385 h -0.506 l 0.528,-1.133 -1.14125,-2.60975 h 0.59675 q 0.07975,0 0.12375,0.0385 0.04675,0.0385 0.06875,0.088 l 0.5995,1.463 q 0.03025,0.07425 0.0495,0.1485 0.022,0.07425 0.04125,0.15125 0.02475,-0.077 0.0495,-0.15125 0.02475,-0.077 0.055,-0.15125 l 0.5665,-1.46025 q 0.022,-0.055 0.0715,-0.09075 0.05225,-0.03575 0.1155,-0.03575 z" style="font-size:5.5px" aria-label="monkey"/>
 </g>
</svg>
