<?xml version="1.0" encoding="UTF-8" standalone="no"?>
<svg
   width="24"
   height="24"
   viewBox="0 0 24 24"
   fill="none"
   version="1.1"
   id="svg11"
   sodipodi:docname="comm-menu-ashy.svg"
   xml:space="preserve"
   inkscape:export-filename="comm-menu-ashy2.svg"
   inkscape:export-xdpi="96"
   inkscape:export-ydpi="96"
   xmlns:inkscape="http://www.inkscape.org/namespaces/inkscape"
   xmlns:sodipodi="http://sodipodi.sourceforge.net/DTD/sodipodi-0.dtd"
   xmlns="http://www.w3.org/2000/svg"
   xmlns:svg="http://www.w3.org/2000/svg"><sodipodi:namedview
     id="namedview11"
     pagecolor="#ffffff"
     bordercolor="#000000"
     borderopacity="0.25"
     inkscape:showpageshadow="2"
     inkscape:pageopacity="0.0"
     inkscape:pagecheckerboard="0"
     inkscape:deskcolor="#d1d1d1"><inkscape:page
       x="0"
       y="0"
       width="24"
       height="24"
       id="page2"
       margin="0"
       bleed="0" /></sodipodi:namedview><defs
     id="defs11" /><g
     id="g12"
     transform="matrix(0.92857735,0,0,0.92857735,-0.73391906,16.614453)"
     style="fill:#f9f9f9"><path
       d="m 16.209884,-6.7878876 c 0.4146,-0.318 0.9181,-0.49898 1.4403,-0.51782 0.1676,0.02821 0.3392,0.03295 0.5083,0.05277 0.1908,0.0473 0.3716,0.12851 0.5337,0.23977 0.2514,0.21009 0.456,0.4706 0.6005,0.76468 0.2203,0.42094 0.3384,0.88783 0.3447,1.36288 -0.0097,0.16036 -0.0314,0.31977 -0.0647,0.47693 -0.0728,-0.14633 -0.1278,-0.30084 -0.1639,-0.46024 -0.0785,-0.20185 -0.1882,-0.39014 -0.325,-0.55802 -0.1984,-0.26071 -0.4871,-0.43779 -0.8094,-0.49645 -0.1228,-0.02444 -0.2486,-0.02991 -0.3731,-0.01624 -0.3505,0.03229 -0.6842,0.16532 -0.9609,0.38304 -0.0923,0.07754 -0.1972,0.1478 -0.2747,0.22956 -0.0939,0.10119 -0.1824,0.2071 -0.2655,0.31732 -0.2443,0.32631 -0.4156,0.70137 -0.5022,1.09971 -0.01,0.16207 -0.0357,0.31461 -0.0477,0.47807 0.0272,0.1149 -0.0208,0.25679 0.0847,0.3366 0.0795,0.0189 0.1628,0.01178 0.2379,-0.02031 0.2019,-0.10417 0.3918,-0.23 0.5665,-0.37526 0.2104,-0.12319 0.373,-0.30095 0.5769,-0.43729 0.1119,-0.06047 0.1875,-0.14083 0.3025,-0.2094 0.2078,-0.14848 0.4312,-0.27389 0.6662,-0.37398 0.1799,-0.07299 0.3772,-0.09191 0.5677,-0.05445 0.1124,0.03449 0.2165,0.09137 0.3063,0.1672 0.0897,0.07583 0.1632,0.16905 0.2159,0.27403 0.1477,0.30928 0.2348,0.644 0.2565,0.98604 0.0103,0.17411 -0.033,0.3392 -0.0405,0.52754 -0.1152,0.57949 -0.315,1.13887 -0.5931,1.66015004 -0.0988,0.18257 -0.2199,0.35217 -0.3607,0.50467 -0.0465,0.0405 -0.0801,0.0969 -0.138,0.1026 0.0317,-0.1107 0.0701,-0.2193 0.1151,-0.3253 0.0409,-0.1202 0.0671,-0.24485 0.078,-0.37131004 0.0476,-0.1905 0.0802,-0.38442 0.0976,-0.57999 -0.0148,-0.199 0.0132,-0.40631 -0.0186,-0.60645 -0.0085,-0.14457 -0.0379,-0.28714 -0.0874,-0.42323 -0.0203,-0.0878 -0.0601,-0.16991 -0.1165,-0.24023 -0.067,-0.07858 -0.1558,-0.13551 -0.2552,-0.1636 -0.0784,0.00279 -0.1564,0.01334 -0.2328,0.03149 -0.1864,0.08584 -0.3589,0.19918 -0.5117,0.33623 -0.1345,0.09984 -0.2784,0.18646 -0.4296,0.25866 -0.2241,0.11604 -0.4832,0.14491 -0.7273,0.08103 -0.3309,-0.09591 -0.6359,-0.26506 -0.8925,-0.49491 -0.1219,-0.10706 -0.2305,-0.22835 -0.3236,-0.36128 -0.2273,-0.3352 -0.3414,-0.73433 -0.3255,-1.139 -0.0153,-0.125 -0.0022,-0.25182 0.0383,-0.37106 0.09,-0.48301 0.2882,-0.93938 0.5797,-1.33489 0.1437,-0.1833 0.3038,-0.35311 0.4784,-0.5073 0.0565,-0.10017 0.1416,-0.18127 0.2444,-0.23296 z"
       fill="#ffffff"
       id="path5"
       style="fill:#f9f9f9" /><path
       d="m 11.209364,-0.87908756 c -0.41378,0.3189 -0.91686,0.5006 -1.4389603,0.5198 -0.16764,-0.0283 -0.33922,-0.033 -0.50799,-0.0545 -0.19116,-0.0457 -0.3722,-0.1265 -0.53398,-0.2381 -0.25034,-0.2126 -0.45281,-0.47574004 -0.59408,-0.77220004 -0.21863,-0.42099 -0.33672,-0.88691 -0.34501,-1.3612 0.00976,-0.16036 0.0314,-0.31977 0.06473,-0.47693 0.07379,0.14591 0.12885,0.30054 0.1639,0.46024 0.07802,0.20164 0.18712,0.38983 0.32333,0.55773 0.19551,0.26218 0.48187,0.44192 0.80298,0.50399 0.12288,0.02474 0.24892,0.02966 0.37335,0.01456 0.35049,-0.0309 0.6843403,-0.16344 0.9605703,-0.38135 0.09262,-0.07922 0.19584,-0.13943 0.27479,-0.22957 0.09413,-0.10091 0.18274,-0.20684 0.26543,-0.31732 0.24936,-0.32758 0.42316,-0.70627 0.50894,-1.10892 0.01312,-0.17017 0.03766,-0.316 0.04937,-0.47779 -0.02889,-0.11518 0.01912,-0.25707 -0.0864,-0.33688 -0.07947,-0.01807 -0.1626,-0.01098 -0.23786,0.02031 -0.20236,0.10418 -0.39247,0.23061 -0.56679,0.37694 -0.20839,0.1218 -0.37271,0.29927 -0.57666,0.43561 -0.1118803,0.06047 -0.1888703,0.14921 -0.3024303,0.2094 -0.20813,0.14804 -0.43149,0.27341 -0.66627,0.37398 -0.17993,0.07289 -0.37718,0.09181 -0.56769,0.05445 -0.11205,-0.03291 -0.21625,-0.08825 -0.30626,-0.16266 -0.09001,-0.07441 -0.16396,-0.16633 -0.21736,-0.27019 -0.14769,-0.30928 -0.23473,-0.644 -0.25643,-0.98604 -0.01035,-0.17411 0.03294,-0.3392 0.0405,-0.52754 0.11604,-0.58096 0.31612,-1.14191 0.59392,-1.66518 0.09875,-0.1826 0.21994,-0.35214 0.36074,-0.50469 0.04645,-0.04045 0.07672,-0.09741 0.13626,-0.10291 -0.03185,0.11066 -0.07028,0.21931 -0.11509,0.32539 -0.04236,0.12032 -0.06922,0.24555 -0.07994,0.37266 -0.04756,0.1905 -0.08019,0.38442 -0.09759,0.58 0.01311,0.19871 -0.0132,0.4063 0.01499,0.60755 0.00905,0.14373 0.03798,0.2855 0.08599,0.42128 0.02154,0.08776 0.06184,0.16981 0.11813,0.24051 0.06712,0.07799 0.15628,0.13386 0.25574,0.16025 0.07854,-0.00193 0.15663,-0.01249 0.23285,-0.0315 0.18643,-0.08583 0.35891,-0.19917 0.51167,-0.33622 0.13422,-0.09892 0.2774203,-0.18505 0.4277103,-0.25727 0.22443,-0.117 0.48436,-0.14638 0.72926,-0.08242 0.33112,0.09525 0.63628,0.26448 0.89246,0.49491 0.1219,0.10646 0.2307,0.2272 0.3239,0.3596 0.2295,0.3363 0.3462,0.73683 0.3333,1.14377 0.0144,0.125 0.0013,0.25163 -0.0383,0.37106 -0.0939,0.48519 -0.297,0.94263 -0.594,1.33765 -0.1385,0.18496 -0.29378,0.35675 -0.46385,0.5132 -0.06298,0.09599 -0.14976,0.17403004 -0.25187,0.22654004 z"
       fill="#ffffff"
       id="path6"
       style="fill:#f9f9f9" /><path
       d="m 13.287784,-6.8382776 c 0.1791,-0.03354 0.3633,-0.02856 0.5403,0.0146 0.177,0.04316 0.3428,0.12351 0.4864,0.23571 0.1004,0.10285 0.174,0.22891 0.214,0.36698 0.0202,0.0863 0.0202,0.17609 0,0.26238 -0.0202,0.08629 -0.0601,0.16676 -0.1164,0.23515 -0.1206,0.15669 -0.2797,0.27947 -0.4618,0.35637 -0.1821,0.0769 -0.3811,0.1053 -0.5774,0.08242 -0.1833,-0.00831 -0.3615,-0.0626 -0.5182,-0.15786 -0.0979,-0.05758 -0.1821,-0.13595 -0.2464,-0.22958 -0.0644,-0.09363 -0.1074,-0.20023 -0.1261,-0.3123 -0.0083,-0.08365 0.0015,-0.1681 0.0285,-0.24767 0.0271,-0.07958 0.0709,-0.15246 0.1284,-0.21374 0.1609,-0.20578 0.3917,-0.34542 0.6487,-0.39246 z"
       fill="#ffffff"
       id="path7"
       style="fill:#f9f9f9" /><path
       d="m 12.970484,-4.8094076 c 0.0907,-0.10422 0.207,-0.18308 0.3374,-0.22883 0.1304,-0.04575 0.2704,-0.05682 0.4064,-0.03213 0.139,0.03212 0.2703,0.09171 0.386,0.17526 0.0855,0.05074 0.1577,0.12108 0.2107,0.20522 0.053,0.08414 0.0852,0.17967 0.094,0.27871 -0.0382,0.22523 -0.053,0.45381 -0.0441,0.68208 0.0709,0.47254 0.2706,0.91644 0.5771,1.28303 0.134,0.22769 0.3409,0.40211 0.4749,0.62979 -0.2574,-0.05106 -0.5106,-0.12133 -0.7576,-0.21021 -0.3036,-0.10266 -0.5862,-0.25941 -0.834,-0.46268 -0.1447,-0.10601 -0.2744,-0.23105 -0.3857,-0.37172 -0.1848,-0.20504 -0.3335,-0.43988 -0.4399,-0.69457 -0.1307,-0.29328 -0.1874,-0.61416 -0.1651,-0.93447 0.0279,-0.11374 0.0753,-0.22181 0.1399,-0.31948 z"
       fill="#ffffff"
       id="path8"
       style="fill:#f9f9f9" /></g><path
     fill="#000000"
     d="M 11.257422,20.812642 C 7.3683931,20.51596 4.1597071,18.435617 2.9241307,15.412802 2.2140016,13.673225 2.1675337,11.971776 2.7787686,10.128539 2.9860879,9.5053896 3.1576628,9.1956018 3.7117064,8.4473454 4.356303,7.5751737 4.4659203,7.2189177 4.6088992,5.5234255 4.6577502,4.9431692 4.726857,4.3128704 4.7614102,4.119849 4.8269425,3.754061 5.0366448,3.1392515 5.0950277,3.1392515 c 0.019063,0 0.3693622,0.3264685 0.7792352,0.7268096 0.8268951,0.8054484 1.192683,1.0830658 1.585875,1.2010232 0.3121708,0.094128 0.5778732,0.048851 1.2725127,-0.2168513 1.8563444,-0.7113202 4.5586464,-0.6934477 6.7235864,0.044085 0.340766,0.1155745 0.713703,0.2108938 0.828087,0.2108938 0.377702,0.00119 0.787575,-0.2752343 1.691917,-1.1390653 0.474213,-0.4551499 0.884086,-0.8268952 0.910299,-0.8268952 0.07863,0 0.10485,0.1394044 0.289533,1.5965983 0.24068,1.8992373 0.396766,2.6081744 0.673192,3.0728562 0.06792,0.1143832 0.316936,0.4754051 0.552852,0.8018736 0.504,0.6970223 0.79115,1.2880018 0.993704,2.0434076 0.71132,2.659409 -0.116767,5.571414 -2.145877,7.548097 -1.526299,1.486981 -3.767494,2.418727 -6.276775,2.609366 -0.859066,0.06553 -0.87098,0.06553 -1.715747,0.0012 z m 1.197448,-1.324939 c 0.106043,-0.170384 0.270469,-0.520682 0.365788,-0.778044 l 0.172767,-0.467064 0.341957,0.164425 c 0.644597,0.309788 1.220087,0.41464 2.088684,0.381278 0.623151,-0.02383 0.861448,-0.06077 1.243917,-0.188256 2.391323,-0.799491 3.93073,-3.159834 3.93073,-6.025371 -0.0012,-1.257024 -0.238299,-2.287664 -0.772086,-3.3528565 C 18.89488,7.3642796 17.393602,6.3145757 15.539641,6.2287885 14.481597,6.1787459 13.772659,6.3443629 13.06968,6.8030873 12.084316,7.4464927 11.941337,7.461982 11.20857,7.0056407 10.088568,6.3062352 9.6286516,6.1763627 8.483629,6.2299798 6.6368173,6.3181504 5.1867724,7.2808753 4.2335794,9.0502398 3.3971528,10.601561 3.1671946,12.735522 3.6378338,14.577567 c 0.4289368,1.680003 1.4548107,3.014473 2.8631537,3.72341 1.2331935,0.621959 2.2459609,0.655321 4.0189005,0.133448 l 0.473021,-0.140596 0.139405,0.43132 c 0.170383,0.525448 0.461108,1.025874 0.651745,1.121193 0.227576,0.113191 0.450385,-0.0059 0.670811,-0.358639 z m 0,0"
     fill-opacity="1"
     fill-rule="nonzero"
     id="path14"
     style="fill:#f9f9f9;stroke-width:0.305022" /></svg>
