<?xml version="1.0" encoding="UTF-8" standalone="no"?>
<svg
   width="24"
   height="24"
   fill="none"
   version="1.1"
   id="svg4"
   xmlns="http://www.w3.org/2000/svg"
   xmlns:svg="http://www.w3.org/2000/svg">
  <rect
     x="1"
     y="1"
     width="22"
     height="22"
     rx="6.6"
     fill="url(#a)"
     opacity=".9"
     stroke="gray"
     stroke-opacity=".2"
     vector-effect="non-scaling-stroke"
     style="-inkscape-stroke:hairline"
     id="rect1" />
  <g
     id="g19"
     style="stroke-width:0.663346;fill:#80d98d;fill-opacity:1"
     transform="matrix(6.4630644,0,0,6.4630644,-21.432237,-1.7090206)">
    <path
       id="path18"
       fill="#fafafa"
       d="M 4.924,3.295 H 4.297 A 0.044,0.044 0 0 0 4.252,3.338 c 0,0.024 0.02,0.044 0.045,0.044 h 0.627 c 0.025,0 0.045,-0.02 0.045,-0.044 A 0.044,0.044 0 0 0 4.924,3.295"
       style="fill:#80d98d;fill-opacity:1;stroke-width:0.175511" />
    <path
       id="path19"
       fill="#fafafa"
       d="M 4.028,2.515 A 0.1,0.1 0 0 0 4.003,2.519 0.04,0.04 0 0 0 3.978,2.552 0.04,0.04 0 0 0 3.988,2.584 L 4,2.594 4.482,2.861 4,3.128 A 0.04,0.04 0 0 0 3.98,3.155 0.04,0.04 0 0 0 3.984,3.187 c 0.013,0.02 0.04,0.028 0.061,0.016 L 4.589,2.902 A 0.04,0.04 0 0 0 4.605,2.886 0.04,0.04 0 0 0 4.61,2.866 V 2.858 A 0.04,0.04 0 0 0 4.605,2.837 0.04,0.04 0 0 0 4.589,2.821 L 4.045,2.52 Z"
       style="fill:#80d98d;fill-opacity:1;stroke-width:0.175511" />
  </g>
  <text
     x="11.98832"
     y="10.948756"
     fill="#00d9d9"
     font-family="Lato"
     font-size="10px"
     font-weight="bold"
     opacity="0.9"
     stroke-width="0.88121"
     text-anchor="middle"
     id="text1"
     style="fill:#80d98d;fill-opacity:1"><tspan
       font-size="4.8466px"
       stroke-width="0.88121"
       id="tspan1"
       style="fill:#80d98d;fill-opacity:1">GRUB</tspan></text>
  <defs
     id="defs4">
    <linearGradient
       id="a"
       x1=".05"
       x2="1"
       y2="1"
       gradientTransform="scale(22)"
       gradientUnits="userSpaceOnUse">
      <stop
         stop-color="#00baba"
         offset="0.2"
         id="stop2"
         style="stop-color:#516772;stop-opacity:1;" />
      <stop
         stop-color="#485e68"
         offset="0.205"
         id="stop3"
         style="stop-color:#1f292d;stop-opacity:1;" />
      <stop
         stop-color="#35454c"
         offset="1"
         id="stop4"
         style="stop-color:#41535a;stop-opacity:1;" />
    </linearGradient>
  </defs>
  <path
     id="path30"
     d="m 18.709494,13.375383 v 1.871176 c -2.759815,-10e-7 -4.997779,2.23596 -5.00025,4.995773 -0.0042,1.033445 0.11287,1.927281 0.713705,2.768128 0.889562,-0.02497 1.105755,0.01324 1.936181,-0.01284 -0.732137,-0.603518 -0.809524,-1.807129 -0.774233,-2.755292 0,-1.835364 1.284756,-3.120119 3.124597,-3.120119 v 1.871176 l 3.746829,-2.811241 z"
     style="fill:#f2f2f2;fill-opacity:1;stroke-width:2.37828;paint-order:markers stroke fill" />
</svg>
